<svg width="65" height="66" viewBox="0 0 65 66" fill="none" xmlns="http://www.w3.org/2000/svg">
<path d="M8.125 33C8.125 36.201 8.75548 39.3706 9.98044 42.3279C11.2054 45.2852 13.0008 47.9723 15.2643 50.2357C17.5277 52.4992 20.2148 54.2946 23.1721 55.5196C26.1294 56.7445 29.299 57.375 32.5 57.375C35.701 57.375 38.8706 56.7445 41.8279 55.5196C44.7852 54.2946 47.4723 52.4992 49.7357 50.2357C51.9992 47.9723 53.7946 45.2852 55.0196 42.3279C56.2445 39.3706 56.875 36.201 56.875 33C56.875 26.5353 54.3069 20.3355 49.7357 15.7643C45.1645 11.1931 38.9647 8.625 32.5 8.625C26.0353 8.625 19.8355 11.1931 15.2643 15.7643C10.6931 20.3355 8.125 26.5353 8.125 33Z" stroke="#F9C689" stroke-width="4" stroke-linecap="round" stroke-linejoin="round"/>
<path d="M32.5 19.457V32.9987L40.625 41.1237" stroke="#F9C689" stroke-width="4" stroke-linecap="round" stroke-linejoin="round"/>
</svg>
