<svg width="65" height="65" viewBox="0 0 65 65" fill="none" xmlns="http://www.w3.org/2000/svg">
<path d="M32.2369 30.6602C29.1815 28.3968 24.6024 24.4389 11.4738 24.4389V52.7787C24.6024 52.7787 29.1815 56.7366 32.2369 59M32.2369 30.6602V59M32.2369 30.6602C35.2924 28.3968 39.8714 24.4389 53 24.4389V52.7787C39.8714 52.7787 35.2924 56.7366 32.2369 59M40.3493 6.22102V16.1752M47.6081 6H20.3338C19.5718 5.99907 18.8247 6.21174 18.177 6.61395L11 11.0917L18.177 15.5612C18.8247 15.9634 19.5718 16.1761 20.3338 16.1752H47.6081C48.2867 16.1944 48.9623 16.0772 49.5949 15.8303C50.2275 15.5834 50.8042 15.2119 51.2911 14.7377C51.7779 14.2636 52.1648 13.6964 52.4291 13.0698C52.6933 12.4432 52.8295 11.7699 52.8295 11.0896C52.8295 10.4094 52.6933 9.73602 52.4291 9.10941C52.1648 8.4828 51.7779 7.91565 51.2911 7.44151C50.8042 6.96737 50.2275 6.59586 49.5949 6.34897C48.9623 6.10207 48.2867 5.98071 47.6081 6Z" stroke="#F9C689" stroke-width="5.2" stroke-linecap="round" stroke-linejoin="round"/>
</svg>
