<svg width="65" height="65" viewBox="0 0 65 65" fill="none" xmlns="http://www.w3.org/2000/svg">
<path d="M6.59091 8.65008V6C5.90376 6 5.24475 6.2792 4.75886 6.77619C4.27297 7.27318 4 7.94724 4 8.65008H6.59091ZM35.0909 8.65008H37.6818C37.6818 7.94724 37.4088 7.27318 36.923 6.77619C36.4371 6.2792 35.7781 6 35.0909 6V8.65008ZM35.0909 24.5506V21.9005C34.4038 21.9005 33.7447 22.1797 33.2589 22.6767C32.773 23.1737 32.5 23.8477 32.5 24.5506H35.0909ZM6.59091 11.3002H35.0909V6H6.59091V11.3002ZM32.5 8.65008V51.0514H37.6818V8.65008H32.5ZM9.18182 45.7513V8.65008H4V45.7513H9.18182ZM35.0909 27.2007H48.0455V21.9005H35.0909V27.2007ZM55.8182 35.1509V45.7513H61V35.1509H55.8182ZM37.6818 51.0514V24.5506H32.5V51.0514H37.6818ZM49.8772 52.9251C49.3914 53.4219 48.7325 53.701 48.0455 53.701C47.3584 53.701 46.6995 53.4219 46.2137 52.9251L42.5501 56.6723C44.0077 58.1627 45.9844 59 48.0455 59C50.1065 59 52.0832 58.1627 53.5408 56.6723L49.8772 52.9251ZM46.2137 49.1778C46.6995 48.681 47.3584 48.4019 48.0455 48.4019C48.7325 48.4019 49.3914 48.681 49.8772 49.1778L53.5408 45.4306C52.0832 43.9402 50.1065 43.1029 48.0455 43.1029C45.9844 43.1029 44.0077 43.9402 42.5501 45.4306L46.2137 49.1778ZM18.7863 52.9251C18.3004 53.4219 17.6416 53.701 16.9545 53.701C16.2675 53.701 15.6086 53.4219 15.1228 52.9251L11.4592 56.6723C12.9168 58.1627 14.8935 59 16.9545 59C19.0156 59 20.9923 58.1627 22.4499 56.6723L18.7863 52.9251ZM15.1228 49.1778C15.6086 48.681 16.2675 48.4019 16.9545 48.4019C17.6416 48.4019 18.3004 48.681 18.7863 49.1778L22.4499 45.4306C20.9923 43.9402 19.0156 43.1029 16.9545 43.1029C14.8935 43.1029 12.9168 43.9402 11.4592 45.4306L15.1228 49.1778ZM49.8772 49.1778C50.385 49.6946 50.6364 50.3704 50.6364 51.0514H55.8182C55.8182 49.0215 55.059 46.9809 53.5408 45.4306L49.8772 49.1778ZM50.6364 51.0514C50.6362 51.7542 50.3632 52.4282 49.8772 52.9251L53.5408 56.6723C54.9985 55.1817 55.8177 53.1598 55.8182 51.0514H50.6364ZM42.8636 48.4014H35.0909V53.7015H42.8636V48.4014ZM46.2137 52.9251C45.7278 52.4282 45.4547 51.7542 45.4545 51.0514H40.2727C40.2727 53.0814 41.0319 55.122 42.5501 56.6723L46.2137 52.9251ZM45.4545 51.0514C45.4547 50.3487 45.7278 49.6747 46.2137 49.1778L42.5501 45.4306C41.0924 46.9212 40.2732 48.9431 40.2727 51.0514H45.4545ZM15.1228 52.9251C14.6368 52.4282 14.3638 51.7542 14.3636 51.0514H9.18182C9.18182 53.0814 9.94095 55.122 11.4592 56.6723L15.1228 52.9251ZM14.3636 51.0514C14.3638 50.3487 14.6368 49.6747 15.1228 49.1778L11.4592 45.4306C10.0015 46.9212 9.18226 48.9431 9.18182 51.0514H14.3636ZM35.0909 48.4014H22.1364V53.7015H35.0909V48.4014ZM18.7863 49.1778C19.2941 49.6946 19.5455 50.3704 19.5455 51.0514H24.7273C24.7273 49.0215 23.9681 46.9809 22.4499 45.4306L18.7863 49.1778ZM19.5455 51.0514C19.5453 51.7542 19.2722 52.4282 18.7863 52.9251L22.4499 56.6723C23.9076 55.1817 24.7268 53.1598 24.7273 51.0514H19.5455ZM55.8182 45.7513C55.8182 46.4541 55.5452 47.1282 55.0593 47.6252C54.5734 48.1222 53.9144 48.4014 53.2273 48.4014V53.7015C55.2887 53.7015 57.2658 52.8639 58.7234 51.373C60.1811 49.882 61 47.8598 61 45.7513H55.8182ZM48.0455 27.2007C50.1069 27.2007 52.0839 28.0383 53.5416 29.5293C54.9993 31.0202 55.8182 33.0424 55.8182 35.1509H61C61 33.4109 60.6649 31.6878 60.0139 30.0802C59.3629 28.4726 58.4086 27.0119 57.2057 25.7815C56.0028 24.5511 54.5747 23.575 53.0029 22.9091C51.4312 22.2432 49.7467 21.9005 48.0455 21.9005V27.2007ZM4 45.7513C4 47.8598 4.81891 49.882 6.27658 51.373C7.73425 52.8639 9.71127 53.7015 11.7727 53.7015V48.4014C11.0856 48.4014 10.4266 48.1222 9.94068 47.6252C9.45479 47.1282 9.18182 46.4541 9.18182 45.7513H4Z" fill="#F9C689"/>
</svg>
