<svg width="65" height="65" viewBox="0 0 65 65" fill="none" xmlns="http://www.w3.org/2000/svg">
<path d="M55 55L44.1426 44.1426M44.1426 44.1426C45.9998 42.2854 47.473 40.0806 48.4781 37.6541C49.4832 35.2275 50.0006 32.6268 50.0006 30.0003C50.0006 27.3738 49.4833 24.7731 48.4781 22.3465C47.473 19.92 45.9998 17.7151 44.1426 15.8579C42.2854 14.0007 40.0806 12.5275 37.6541 11.5224C35.2275 10.5173 32.6268 10 30.0003 10C27.3738 10 24.7731 10.5173 22.3465 11.5224C19.92 12.5275 17.7151 14.0007 15.8579 15.8579C12.1072 19.6087 10 24.6959 10 30.0003C10 35.3047 12.1072 40.3918 15.8579 44.1426C19.6087 47.8934 24.6959 50.0006 30.0003 50.0006C35.3047 50.0006 40.3918 47.8934 44.1426 44.1426Z" stroke="#F9C689" stroke-width="5.2" stroke-linecap="round" stroke-linejoin="round"/>
</svg>
