<svg width="65" height="66" viewBox="0 0 65 66" fill="none" xmlns="http://www.w3.org/2000/svg">
<path d="M32.4987 19.4584C38.2451 19.4584 43.7561 21.7412 47.8193 25.8045C51.8826 29.8677 54.1654 35.3787 54.1654 41.1251C54.1654 46.8715 51.8826 52.3825 47.8193 56.4458C43.7561 60.509 38.2451 62.7918 32.4987 62.7918C26.7523 62.7918 21.2413 60.509 17.1781 56.4458C13.1148 52.3825 10.832 46.8715 10.832 41.1251C10.832 35.3787 13.1148 29.8677 17.1781 25.8045C21.2413 21.7412 26.7523 19.4584 32.4987 19.4584ZM32.4987 24.8751C28.1889 24.8751 24.0557 26.5872 21.0082 29.6346C17.9607 32.6821 16.2487 36.8153 16.2487 41.1251C16.2487 45.4349 17.9607 49.5681 21.0082 52.6156C24.0557 55.6631 28.1889 57.3751 32.4987 57.3751C36.8085 57.3751 40.9417 55.6631 43.9892 52.6156C47.0367 49.5681 48.7487 45.4349 48.7487 41.1251C48.7487 36.8153 47.0367 32.6821 43.9892 29.6346C40.9417 26.5872 36.8085 24.8751 32.4987 24.8751ZM32.4987 28.9376L36.0791 36.1959L44.0904 37.3605L38.2945 43.0074L39.6622 50.9861L32.4987 47.2189L25.3352 50.9834L26.7029 43.0074L20.907 37.3578L28.9183 36.1932L32.4987 28.9376ZM48.7487 5.91677V14.0418L45.0572 17.1239C41.9949 15.5145 38.65 14.5129 35.207 14.1745V5.91677H48.7487ZM29.7904 5.91406V14.1745C26.3485 14.5124 23.0046 15.513 19.9429 17.1211L16.2487 14.0418V5.91677L29.7904 5.91406Z" fill="#F9C689"/>
</svg>
