<svg width="65" height="65" viewBox="0 0 65 65" fill="none" xmlns="http://www.w3.org/2000/svg">
<path d="M59.5827 13.543C59.5827 9.06339 55.9373 5.41797 51.4577 5.41797H13.541C9.06143 5.41797 5.41602 9.06339 5.41602 13.543V21.2103C5.41602 24.0621 6.4506 26.654 8.12435 28.6473V51.4596C8.12435 54.4469 10.5537 56.8763 13.541 56.8763H51.4577C54.445 56.8763 56.8744 54.4469 56.8744 51.4596V28.6446C58.5481 26.654 59.5827 24.0621 59.5827 21.2076V13.543ZM54.166 13.543V21.2103C54.166 24.2978 51.8666 26.9303 49.0446 27.0792L48.7494 27.0846C45.7621 27.0846 43.3327 24.6553 43.3327 21.668V10.8346H51.4577C52.9527 10.8346 54.166 12.0507 54.166 13.543ZM27.0827 10.8346H37.916V21.668C37.916 24.6553 35.4866 27.0846 32.4994 27.0846C29.5121 27.0846 27.0827 24.6553 27.0827 21.668V10.8346ZM10.8327 13.543C10.8327 12.0507 12.046 10.8346 13.541 10.8346H21.666V21.668C21.666 24.6553 19.2366 27.0846 16.2493 27.0846L15.9541 27.0765C13.1321 26.9303 10.8327 24.2978 10.8327 21.2103V13.543ZM27.0827 51.4596V43.3346H37.916V51.4596H27.0827ZM43.3327 51.4596V43.3346C43.3327 40.3473 40.9033 37.918 37.916 37.918H27.0827C24.0954 37.918 21.666 40.3473 21.666 43.3346V51.4596H13.541V32.1465C14.2307 32.3307 14.9412 32.4435 15.6725 32.4851C17.3052 32.5733 18.9367 32.2898 20.4441 31.656C21.9514 31.0222 23.2952 30.0546 24.3744 28.8261C26.3596 31.0794 29.2683 32.5013 32.4994 32.5013C35.7304 32.5013 38.6391 31.0794 40.6244 28.8261C41.7035 30.0546 43.0473 31.0222 44.5546 31.656C46.062 32.2898 47.6935 32.5733 49.3262 32.4851C50.0593 32.4435 50.7698 32.3307 51.4577 32.1465V51.4596H43.3327Z" fill="#F9C689"/>
</svg>
