<svg width="65" height="66" viewBox="0 0 65 66" fill="none" xmlns="http://www.w3.org/2000/svg">
<path d="M16.25 26.5447V6.59375C16.25 6.05503 16.464 5.53837 16.8449 5.15744C17.2259 4.77651 17.7425 4.5625 18.2812 4.5625C18.82 4.5625 19.3366 4.77651 19.7176 5.15744C20.0985 5.53837 20.3125 6.05503 20.3125 6.59375V26.5447C21.5011 26.1245 22.5301 25.3459 23.2577 24.3164C23.9853 23.2868 24.3757 22.0569 24.375 20.7962V6.59375C24.375 6.05503 24.589 5.53837 24.9699 5.15744C25.3509 4.77651 25.8675 4.5625 26.4062 4.5625C26.945 4.5625 27.4616 4.77651 27.8426 5.15744C28.2235 5.53837 28.4375 6.05503 28.4375 6.59375V20.7962C28.438 23.1376 27.6295 25.4072 26.1489 27.2209C24.6683 29.0346 22.6065 30.2811 20.3125 30.7494V59.4062C20.3125 59.945 20.0985 60.4616 19.7176 60.8426C19.3366 61.2235 18.82 61.4375 18.2812 61.4375C17.7425 61.4375 17.2259 61.2235 16.8449 60.8426C16.464 60.4616 16.25 59.945 16.25 59.4062V30.7494C13.956 30.2811 11.8942 29.0346 10.4136 27.2209C8.933 25.4072 8.12452 23.1376 8.125 20.7962V6.59375C8.125 6.05503 8.33901 5.53837 8.71994 5.15744C9.10087 4.77651 9.61753 4.5625 10.1563 4.5625C10.695 4.5625 11.2116 4.77651 11.5926 5.15744C11.9735 5.53837 12.1875 6.05503 12.1875 6.59375V20.7962C12.1868 22.0569 12.5772 23.2868 13.3048 24.3164C14.0324 25.3459 15.0614 26.1245 16.25 26.5447ZM42.6562 36.8391C36.8916 35.5472 32.5 28.8644 32.5 20.8125C32.5 11.8344 37.9559 4.5625 44.6875 4.5625C51.4191 4.5625 56.875 11.8344 56.875 20.8125C56.875 28.8644 52.4834 35.5472 46.7188 36.8391V59.4062C46.7188 59.945 46.5047 60.4616 46.1238 60.8426C45.7429 61.2235 45.2262 61.4375 44.6875 61.4375C44.1488 61.4375 43.6321 61.2235 43.2512 60.8426C42.8703 60.4616 42.6562 59.945 42.6562 59.4062V36.8391ZM44.6875 33C48.88 33 52.8125 27.7594 52.8125 20.8125C52.8125 13.8656 48.88 8.625 44.6875 8.625C40.495 8.625 36.5625 13.8656 36.5625 20.8125C36.5625 27.7594 40.495 33 44.6875 33Z" fill="#F9C689"/>
</svg>
