<svg width="65" height="66" viewBox="0 0 65 66" fill="none" xmlns="http://www.w3.org/2000/svg">
<path d="M58.5006 56.8335H45.5006V39.5002H58.5006C58.8973 39.5006 59.2865 39.3922 59.6258 39.1866C59.9651 38.9811 60.2414 38.6864 60.4247 38.3346C60.6079 37.9828 60.6911 37.5874 60.6651 37.1916C60.6392 36.7958 60.505 36.4147 60.2773 36.0898L50.5273 22.1668H54.1673C54.579 22.1667 54.9821 22.0492 55.3295 21.8283C55.6769 21.6073 55.9541 21.2919 56.1287 20.919C56.3033 20.5462 56.368 20.1313 56.3154 19.723C56.2627 19.3147 56.0948 18.9298 55.8313 18.6135L44.998 5.61351C44.7883 5.37988 44.5317 5.19303 44.245 5.06511C43.9583 4.9372 43.6479 4.87109 43.334 4.87109C43.02 4.87109 42.7096 4.9372 42.4229 5.06511C42.1362 5.19303 41.8797 5.37988 41.67 5.61351L30.8366 18.6135C30.5732 18.9298 30.4053 19.3147 30.3526 19.723C30.2999 20.1313 30.3647 20.5462 30.5393 20.919C30.7139 21.2919 30.9911 21.6073 31.3385 21.8283C31.6858 22.0492 32.089 22.1667 32.5006 22.1668H36.1406L26.3907 36.0898C26.163 36.4147 26.0288 36.7958 26.0028 37.1916C25.9768 37.5874 26.06 37.9828 26.2433 38.3346C26.4266 38.6864 26.7029 38.9811 27.0422 39.1866C27.3815 39.3922 27.7706 39.5006 28.1673 39.5002H41.1673V56.8335H17.334V48.1668H23.834C24.4086 48.1668 24.9597 47.9386 25.366 47.5322C25.7724 47.1259 26.0006 46.5748 26.0006 46.0002C26.0006 45.4255 25.7724 44.8744 25.366 44.4681C24.9597 44.0618 24.4086 43.8335 23.834 43.8335H6.50065C5.92602 43.8335 5.37491 44.0618 4.96859 44.4681C4.56226 44.8744 4.33398 45.4255 4.33398 46.0002C4.33398 46.5748 4.56226 47.1259 4.96859 47.5322C5.37491 47.9386 5.92602 48.1668 6.50065 48.1668H13.0007V56.8335H6.50065C5.92602 56.8335 5.37491 57.0618 4.96859 57.4681C4.56226 57.8744 4.33398 58.4255 4.33398 59.0002C4.33398 59.5748 4.56226 60.1259 4.96859 60.5322C5.37491 60.9386 5.92602 61.1668 6.50065 61.1668H58.5006C59.0753 61.1668 59.6264 60.9386 60.0327 60.5322C60.439 60.1259 60.6673 59.5748 60.6673 59.0002C60.6673 58.4255 60.439 57.8744 60.0327 57.4681C59.6264 57.0618 59.0753 56.8335 58.5006 56.8335Z" fill="#F9C689"/>
</svg>
