<svg width="65" height="65" viewBox="0 0 65 65" fill="none" xmlns="http://www.w3.org/2000/svg">
<path d="M48.7506 5.41797C50.1872 5.41797 51.565 5.98865 52.5808 7.00447C53.5966 8.0203 54.1673 9.39805 54.1673 10.8346V42.2134C54.167 43.6499 53.5961 45.0274 52.5802 46.043L40.6257 57.9976C39.6101 59.0134 38.2325 59.5843 36.7961 59.5846H16.2507C14.8141 59.5846 13.4363 59.014 12.4205 57.9981C11.4047 56.9823 10.834 55.6046 10.834 54.168V10.8346C10.834 9.39805 11.4047 8.0203 12.4205 7.00447C13.4363 5.98865 14.8141 5.41797 16.2507 5.41797H48.7506ZM48.7506 10.8346H16.2507V54.168H32.5007V41.9805C32.5007 40.903 32.9287 39.8697 33.6905 39.1078C34.4524 38.346 35.4857 37.918 36.5632 37.918H48.7506V10.8346ZM47.6294 43.3346H37.9173V53.0467L47.6294 43.3346ZM27.084 29.793C27.8023 29.793 28.4912 30.0783 28.9991 30.5862C29.507 31.0941 29.7923 31.783 29.7923 32.5013C29.7923 33.2196 29.507 33.9085 28.9991 34.4164C28.4912 34.9243 27.8023 35.2096 27.084 35.2096H24.3757C23.6574 35.2096 22.9685 34.9243 22.4606 34.4164C21.9527 33.9085 21.6673 33.2196 21.6673 32.5013C21.6673 31.783 21.9527 31.0941 22.4606 30.5862C22.9685 30.0783 23.6574 29.793 24.3757 29.793H27.084ZM40.6257 18.9596C41.3439 18.9596 42.0328 19.245 42.5407 19.7529C43.0486 20.2608 43.334 20.9497 43.334 21.668C43.334 22.3863 43.0486 23.0751 42.5407 23.5831C42.0328 24.091 41.3439 24.3763 40.6257 24.3763H24.3757C23.6574 24.3763 22.9685 24.091 22.4606 23.5831C21.9527 23.0751 21.6673 22.3863 21.6673 21.668C21.6673 20.9497 21.9527 20.2608 22.4606 19.7529C22.9685 19.245 23.6574 18.9596 24.3757 18.9596H40.6257Z" fill="#F9C689"/>
</svg>
