<svg width="65" height="66" viewBox="0 0 65 66" fill="none" xmlns="http://www.w3.org/2000/svg">
<path d="M10.834 24.875V51.9583C10.834 53.3949 11.4047 54.7727 12.4205 55.7885C13.4363 56.8043 14.8141 57.375 16.2507 57.375H48.7506C50.1872 57.375 51.565 56.8043 52.5808 55.7885C53.5966 54.7727 54.1673 53.3949 54.1673 51.9583V24.875M10.834 24.875V19.4583C10.834 18.0217 11.4047 16.644 12.4205 15.6282C13.4363 14.6123 14.8141 14.0417 16.2507 14.0417H21.6673M10.834 24.875H54.1673M54.1673 24.875V19.4583C54.1673 18.0217 53.5966 16.644 52.5808 15.6282C51.565 14.6123 50.1872 14.0417 48.7506 14.0417H43.334M21.6673 14.0417H43.334M21.6673 14.0417V8.625M43.334 14.0417V8.625" stroke="#F9C689" stroke-width="4" stroke-linecap="round" stroke-linejoin="round"/>
</svg>
