<svg width="65" height="66" viewBox="0 0 65 66" fill="none" xmlns="http://www.w3.org/2000/svg">
<path d="M27.7271 12.7213C27.7271 11.4557 28.2299 10.2419 29.1248 9.34693C30.0198 8.45199 31.2336 7.94922 32.4992 7.94922C33.7649 7.94922 34.9787 8.45199 35.8736 9.34693C36.7685 10.2419 37.2713 11.4557 37.2713 12.7213V24.6055L55.5065 34.1794C55.9435 34.409 56.3095 34.7536 56.5649 35.176C56.8203 35.5985 56.9553 36.0827 56.9555 36.5763V37.7436C56.9557 37.9828 56.9031 38.2191 56.8014 38.4357C56.6997 38.6522 56.5515 38.8437 56.3673 38.9963C56.1831 39.149 55.9675 39.259 55.7358 39.3187C55.5041 39.3784 55.2622 39.3862 55.0271 39.3415L37.2713 35.9832V47.1063C37.2708 47.4009 37.3505 47.6901 37.5017 47.943C37.6529 48.1958 37.8701 48.4028 38.1298 48.5417L43.1728 51.2392C43.8208 51.5861 44.3625 52.1024 44.7402 52.7329C45.118 53.3634 45.3176 54.0846 45.3178 54.8196V56.0303C45.3179 56.2736 45.2633 56.5139 45.1581 56.7333C45.0529 56.9528 44.8998 57.1458 44.71 57.2982C44.5202 57.4505 44.2987 57.5583 44.0617 57.6135C43.8246 57.6688 43.5783 57.6701 43.3407 57.6173L32.4992 55.2205L21.6578 57.6173C21.4202 57.6701 21.1738 57.6688 20.9368 57.6135C20.6998 57.5583 20.4782 57.4505 20.2884 57.2982C20.0987 57.1458 19.9455 56.9528 19.8403 56.7333C19.7351 56.5139 19.6806 56.2736 19.6807 56.0303V54.8196C19.6809 54.0846 19.8805 53.3634 20.2582 52.7329C20.636 52.1024 21.1777 51.5861 21.8257 51.2392L26.8686 48.539C27.128 48.4003 27.3448 48.1937 27.496 47.9414C27.6472 47.6891 27.7271 47.4005 27.7271 47.1063V35.9859L9.9713 39.3388C9.73628 39.3835 9.4943 39.3757 9.26263 39.316C9.03097 39.2563 8.81533 39.1462 8.63113 38.9936C8.44693 38.841 8.2987 38.6495 8.19703 38.433C8.09536 38.2164 8.04275 37.9801 8.04297 37.7409V36.5763C8.04263 36.0822 8.17746 35.5974 8.43286 35.1745C8.68826 34.7515 9.0545 34.4065 9.49193 34.1767L27.7271 24.6055V12.7213Z" stroke="#F9C689" stroke-width="4" stroke-linecap="round" stroke-linejoin="round"/>
</svg>
