<svg width="65" height="65" viewBox="0 0 65 65" fill="none" xmlns="http://www.w3.org/2000/svg">
<g clip-path="url(#clip0_145_3089)">
<path d="M13.1071 49.0198L13.1004 49.0247L13.0938 49.0299L7.62049 53.3407V25.276C7.62049 24.9033 7.76857 24.5458 8.03216 24.2822C8.29576 24.0186 8.65327 23.8705 9.02604 23.8705H15.9955H16.3955V23.4705V19.8594V19.4594H15.9955H9.02604C7.48337 19.4594 6.00387 20.0722 4.91304 21.163C3.8222 22.2539 3.20937 23.7334 3.20937 25.276L3.20936 57.776L3.20939 57.7792C3.21267 58.1889 3.32996 58.5895 3.54811 58.9362C3.76626 59.2829 4.07665 59.562 4.4445 59.7422L4.44443 59.7423L4.4549 59.7471C4.80928 59.9083 5.20001 59.9728 5.5874 59.934C5.97477 59.8953 6.345 59.7547 6.66046 59.5266L6.66313 59.5246L15.856 52.7594H39.9856C40.7226 52.7803 41.4561 52.6502 42.1409 52.3769C42.8277 52.1029 43.4508 51.6908 43.9718 51.1662C44.4928 50.6415 44.9005 50.0155 45.1697 49.3269C45.438 48.6406 45.5631 47.9066 45.5372 47.1703V45.1372V44.7372H45.1372H41.526H41.126V45.1372V46.9427C41.126 47.3155 40.978 47.673 40.7144 47.9366C40.4508 48.2002 40.0933 48.3483 39.7205 48.3483H14.4427C14.1271 48.3483 13.8528 48.4897 13.6478 48.6222C13.52 48.7048 13.3747 48.8163 13.2562 48.9072C13.1984 48.9516 13.147 48.991 13.1071 49.0198Z" fill="#F9C689" stroke="#F9C689" stroke-width="0.8"/>
<path d="M55.9838 6.82266L55.9838 6.82288C57.4926 6.8732 58.9228 7.50817 59.972 8.5936C61.0213 9.67903 61.6074 11.1299 61.6066 12.6395M55.9838 6.82266L61.2066 12.6393M55.9838 6.82266H55.9705H25.276C23.7334 6.82266 22.2539 7.43548 21.163 8.52632C20.0722 9.61716 19.4594 11.0966 19.4594 12.6393V34.306C19.4594 35.8487 20.0722 37.3282 21.163 38.419C22.2539 39.5098 23.7334 40.1227 25.276 40.1227H49.6043M55.9838 6.82266L55.9705 7.22266H25.276C23.8395 7.22266 22.4617 7.79334 21.4459 8.80916C20.4301 9.82498 19.8594 11.2027 19.8594 12.6393V34.306C19.8594 35.7426 20.4301 37.1203 21.4459 38.1362C22.4617 39.152 23.8395 39.7227 25.276 39.7227H49.7413M61.6066 12.6395L61.2066 12.6393M61.6066 12.6395V12.6393H61.2066M61.6066 12.6395V44.9949V44.996C61.6054 45.4117 61.4868 45.8187 61.2643 46.1699C61.0419 46.5211 60.7248 46.8023 60.3494 46.981L60.3397 46.9856L60.3396 46.9855C59.9834 47.1436 59.5915 47.2044 59.2041 47.1618C58.8167 47.1191 58.4475 46.9746 58.1341 46.7429L58.1266 46.7373L58.1266 46.7373L49.6043 40.1227M61.2066 12.6393V44.9949C61.2056 45.3352 61.1085 45.6683 60.9264 45.9558C60.7443 46.2433 60.4847 46.4735 60.1774 46.6199C59.8858 46.7493 59.565 46.7991 59.2479 46.7642C58.9307 46.7293 58.6284 46.611 58.3719 46.4213L49.7413 39.7227M49.6043 40.1227H49.7413V39.7227M49.6043 40.1227L49.4961 40.0387L49.7413 39.7227M57.376 40.6006L51.7026 36.1753L51.7018 36.1747C51.3169 35.8759 50.8438 35.7131 50.3565 35.7115H50.3552H25.276C24.9033 35.7115 24.5458 35.5635 24.2822 35.2999C24.0186 35.0363 23.8705 34.6788 23.8705 34.306V12.6393C23.8705 12.2665 24.0186 11.909 24.2822 11.6454C24.5458 11.3819 24.9033 11.2338 25.276 11.2338H55.9513C56.3303 11.2723 56.683 11.446 56.9447 11.7233C57.2089 12.0034 57.3621 12.3699 57.376 12.7544V40.6006Z" fill="#F9C689" stroke="#F9C689" stroke-width="0.8"/>
</g>
<defs>
<clipPath id="clip0_145_3089">
<rect width="65" height="65" fill="white"/>
</clipPath>
</defs>
</svg>
