<svg width="154" height="93" viewBox="0 0 154 93" fill="none" xmlns="http://www.w3.org/2000/svg">
<path d="M58.5479 92.1828C64.8931 92.238 71.3037 89.4514 69.2105 83.5746C65.2856 72.4613 53.7072 74.343 48.932 83.7623C46.1845 89.2362 52.2681 92.1276 58.6133 92.1773L58.5479 92.1828ZM132.008 89.0651C140.12 89.1424 147.839 82.4986 140.447 69.4485C162.819 69.8403 154.38 43.6185 137.569 50.9575C146.334 28.1128 110.945 24.5261 115.655 48.2426C94.5259 37.0521 84.9754 54.9471 106.039 63.3234C78.4339 68.3835 101.198 95.9019 118.991 76.5226C119.056 84.8714 125.663 88.9989 132.008 89.0596V89.0651ZM125.271 67.4289C121.15 67.4289 117.813 64.6257 117.813 61.1714C117.813 57.7116 121.15 54.914 125.271 54.914C129.392 54.914 132.663 57.7116 132.663 61.1714C132.663 64.6257 129.392 67.4289 125.271 67.4289ZM34.9332 66.706C46.3153 66.7667 53.4456 54.2959 30.943 46.9294C42.9138 33.2446 9.55235 20.7738 14.9818 43.9496C-12.9503 44.667 3.73047 75.259 20.2149 58.6055C24.5977 64.4271 30.1579 66.6839 34.9332 66.706ZM9.29071 18.9529C23.0278 18.6218 23.8781 8.68934 14.3276 2.3436C3.20715 -4.94022 -5.23132 19.284 9.29071 18.9529Z" fill="#F57820" fill-opacity="0.2"/>
</svg>
